<svg xmlns="http://www.w3.org/2000/svg" width="345" height="160" viewBox="0 0 345 160">
  <g id="Group_2179" transform="translate(9522.747 3255.749)">
    <rect id="Rectangle" width="345" height="160" transform="translate(-9522.747 -3255.749)" fill="#47a1ad"/>
    <path id="Subtraction_63" d="M338.342,63.749h-2.185A16.113,16.113,0,0,1,345,54.906v2.186a14.1,14.1,0,0,0-6.657,6.655Zm-16.745,0h-2.038a31.6,31.6,0,0,1,1.955-6.455A32.006,32.006,0,0,1,345,38.308v2.039a30,30,0,0,0-23.4,23.4Zm-18.38,0h-1.865A49.743,49.743,0,0,1,309.538,41.8a50.106,50.106,0,0,1,22-18.116A49.652,49.652,0,0,1,345,20.1V21.97a48.128,48.128,0,0,0-41.782,41.778Zm-19.96,0h-2.007a69.691,69.691,0,0,1,11.7-33.139,70.239,70.239,0,0,1,30.8-25.36A69.46,69.46,0,0,1,345,0V2.007A67.685,67.685,0,0,0,312.98,13.362a68.2,68.2,0,0,0-24.638,29.92,67.37,67.37,0,0,0-5.085,20.466Z" transform="translate(-9522.747 -3159.498)" fill="#fff"/>
  </g>
</svg>
