<svg xmlns="http://www.w3.org/2000/svg" width="345" height="160" viewBox="0 0 345 160">
  <g id="Group_2177" transform="translate(8387 3944.751)">
    <rect id="Rectangle" width="345" height="160" transform="translate(-8387 -3944.751)" fill="#f1627a"/>
    <path id="Subtraction_57" d="M357,63.749h0V61.742a67.59,67.59,0,0,0,20.468-5.085,68.094,68.094,0,0,0,11.55-6.27,68.52,68.52,0,0,0,10.065-8.3,68.415,68.415,0,0,0,8.3-10.063,67.9,67.9,0,0,0,6.271-11.552A67.4,67.4,0,0,0,418.74,0h2.01A69.445,69.445,0,0,1,415.5,21.247a70.271,70.271,0,0,1-6.455,11.891A70.65,70.65,0,0,1,400.5,43.5a70.416,70.416,0,0,1-10.362,8.55A70.144,70.144,0,0,1,378.247,58.5,69.457,69.457,0,0,1,357,63.749Zm0-20.105v0h0V41.779a47.724,47.724,0,0,0,12.74-3.414,48.044,48.044,0,0,0,15.3-10.319A47.925,47.925,0,0,0,395.364,12.74,47.773,47.773,0,0,0,398.78,0h1.866a49.6,49.6,0,0,1-3.575,13.46,50.149,50.149,0,0,1-4.61,8.493,50.406,50.406,0,0,1-6.106,7.4,50.339,50.339,0,0,1-7.4,6.1,49.868,49.868,0,0,1-8.493,4.611A49.55,49.55,0,0,1,357,43.644Zm0-18.2v0h0V23.4a29.74,29.74,0,0,0,5.674-1.761,29.8,29.8,0,0,0,9.537-6.429,29.852,29.852,0,0,0,6.429-9.535A29.912,29.912,0,0,0,380.4,0h2.037a31.667,31.667,0,0,1-1.954,6.455,31.9,31.9,0,0,1-6.859,10.171,31.874,31.874,0,0,1-10.171,6.859A31.893,31.893,0,0,1,357,25.44Zm0-16.6V6.656A13.963,13.963,0,0,0,360.9,3.9,14.008,14.008,0,0,0,363.658,0h2.184a15.927,15.927,0,0,1-3.529,5.314A15.923,15.923,0,0,1,357,8.842Z" transform="translate(-8744 -3944.751)" fill="#fff"/>
  </g>
</svg>
