<svg width="59" height="59" viewBox="0 0 59 59" fill="none" xmlns="http://www.w3.org/2000/svg">
<path d="M46.3339 12.9367H39.5137C39.3514 12.9367 39.2431 13.045 39.2431 13.2073V33.9927L19.1614 13.9651C18.5119 13.3156 17.5917 12.9367 16.6715 12.9367H12.666C12.5036 12.9367 12.3954 13.045 12.3954 13.2073V36.3743C12.3954 37.3486 12.8284 38.2688 13.5321 38.9725L19.2697 44.7101C19.4321 44.8725 19.7569 44.7642 19.7569 44.4936V24.9532L39.8385 45.0349C40.4881 45.6844 41.4082 46.0633 42.3284 46.0633H46.3339C46.4963 46.0633 46.6046 45.9551 46.6046 45.7927V13.2073C46.6046 13.045 46.4963 12.9367 46.3339 12.9367Z" fill="white"/>
<path d="M59 59H16.022L0 42.978V0H59V59ZM18.0789 54.1284H54.1284V4.87156H4.87156V40.9752L18.0789 54.1284Z" fill="#F6BE00"/>
</svg>
