<svg xmlns="http://www.w3.org/2000/svg" width="17.003" height="17" viewBox="0 0 17.003 17">
  <path id="path-1" d="M6.553,18h0L1.693,13.149v-.767l-.263-.273a6.313,6.313,0,0,1-4.112,1.527A6.327,6.327,0,0,1-9,7.317,6.325,6.325,0,0,1-2.681,1,6.325,6.325,0,0,1,3.638,7.317,6.312,6.312,0,0,1,2.111,11.43l.273.262h.767L8,16.554,6.553,18ZM-2.681,2.942A4.38,4.38,0,0,0-7.057,7.317a4.38,4.38,0,0,0,4.375,4.375A4.38,4.38,0,0,0,1.693,7.317,4.38,4.38,0,0,0-2.681,2.942Z" transform="translate(9 -1.001)" fill="#003d4f"/>
</svg>
