<svg xmlns="http://www.w3.org/2000/svg" width="345.002" height="160" viewBox="0 0 345.002 160">
  <g id="Group_2178" transform="translate(9497 3709)">
    <rect id="Rectangle" width="345" height="160" transform="translate(-9497 -3709)" fill="#cc850a"/>
    <path id="Subtraction_60" d="M63.749,63.749h0A69.393,69.393,0,0,1,42.5,58.5a70.007,70.007,0,0,1-11.892-6.452A70.519,70.519,0,0,1,20.25,43.5,70.539,70.539,0,0,1,11.7,33.138,70.121,70.121,0,0,1,5.25,21.247,69.508,69.508,0,0,1,0,0H2.007A67.459,67.459,0,0,0,7.092,20.467a67.834,67.834,0,0,0,6.27,11.552,68.2,68.2,0,0,0,8.305,10.063,68.31,68.31,0,0,0,10.062,8.3,67.994,67.994,0,0,0,11.55,6.27,67.5,67.5,0,0,0,20.47,5.082v2.009Zm0-20.1,0,0a49.557,49.557,0,0,1-13.46-3.574,49.867,49.867,0,0,1-8.493-4.611,50.581,50.581,0,0,1-7.4-6.1,50.36,50.36,0,0,1-6.1-7.4,49.974,49.974,0,0,1-4.61-8.493A49.565,49.565,0,0,1,20.1,0h1.865a47.807,47.807,0,0,0,3.416,12.74A47.979,47.979,0,0,0,35.7,28.046,48.072,48.072,0,0,0,51,38.365a47.773,47.773,0,0,0,12.744,3.414v1.868Zm0-18.206h0a31.947,31.947,0,0,1-6.454-1.956A31.881,31.881,0,0,1,47.12,16.626,31.846,31.846,0,0,1,40.264,6.455,31.643,31.643,0,0,1,38.309,0h2.038a29.878,29.878,0,0,0,1.759,5.677,29.838,29.838,0,0,0,6.429,9.535,29.864,29.864,0,0,0,9.537,6.429A29.7,29.7,0,0,0,63.749,23.4v2.037Zm0-16.6h0a15.944,15.944,0,0,1-5.313-3.528A15.939,15.939,0,0,1,54.906,0H57.09a13.976,13.976,0,0,0,2.759,3.9,14.03,14.03,0,0,0,3.9,2.759V8.841Z" transform="translate(-9215.748 -3709)" fill="#fff"/>
  </g>
</svg>
