<svg xmlns="http://www.w3.org/2000/svg" width="345" height="160" viewBox="0 0 345 160">
  <g id="Group_2176" transform="translate(8387 4117)">
    <rect id="Rectangle" width="345" height="160" transform="translate(-8387 -4117)" fill="#6b9e78"/>
    <path id="Subtraction_54" d="M43.646,63.749H41.781a47.8,47.8,0,0,0-3.416-12.741A47.954,47.954,0,0,0,28.045,35.7a47.977,47.977,0,0,0-15.3-10.317A47.728,47.728,0,0,0,0,21.97V20.1a49.63,49.63,0,0,1,13.46,3.577,49.932,49.932,0,0,1,8.493,4.608,50.529,50.529,0,0,1,7.4,6.107,50.306,50.306,0,0,1,6.106,7.4,50,50,0,0,1,4.61,8.492,49.614,49.614,0,0,1,3.575,13.46Zm20.1,0H61.741a67.475,67.475,0,0,0-5.085-20.467,67.789,67.789,0,0,0-6.271-11.552,68.331,68.331,0,0,0-8.3-10.063,68.536,68.536,0,0,0-10.066-8.3,67.785,67.785,0,0,0-11.55-6.268A67.477,67.477,0,0,0,0,2.007V0A69.468,69.468,0,0,1,21.248,5.25,69.975,69.975,0,0,1,33.136,11.7,70.616,70.616,0,0,1,43.5,20.252,70.294,70.294,0,0,1,52.044,30.61,69.9,69.9,0,0,1,58.5,42.5a69.472,69.472,0,0,1,5.25,21.246Zm-38.31,0H23.4a29.9,29.9,0,0,0-1.761-5.677,29.893,29.893,0,0,0-6.429-9.537,29.88,29.88,0,0,0-9.537-6.429A29.855,29.855,0,0,0,0,40.347V38.308a31.723,31.723,0,0,1,6.455,1.956,31.845,31.845,0,0,1,10.171,6.858,31.906,31.906,0,0,1,6.86,10.172,31.884,31.884,0,0,1,1.953,6.454Zm-18.781,0h0a13.976,13.976,0,0,0-2.756-3.9A13.945,13.945,0,0,0,0,57.092V54.909a15.866,15.866,0,0,1,5.313,3.527,15.969,15.969,0,0,1,3.528,5.31Z" transform="translate(-8387 -4020.75)" fill="#fff"/>
  </g>
</svg>
